<svg xmlns="http://www.w3.org/2000/svg" viewBox="0 0 381.43 97.16"><g id="Layer_2" data-name="Layer 2"><g id="Layer_1-2" data-name="Layer 1"><path d="M0,47.13,78.62,0l4.29,7.15L25.73,41.43,30,48.57,15.72,57.14,11.43,50,4.28,54.28ZM44.31,40l4.28,7.15L34.3,55.72,30,48.57Zm4.28,7.15,7.15-4.28L60,50,52.88,54.3ZM60,50l14.3-8.57,4.28,7.15L64.31,57.16ZM92.9,40l4.28,7.15,7.15-4.29L108.61,50,30,97.16,25.71,90,82.89,55.74,78.6,48.59Z"/><path d="M156.43,84.08v8.34h-25V84.08h8.34V17.42h-8.34V9.08h8.34V.75h8.33V84.08Z"/><path d="M173.1,75.75V17.42h8.33V75.75Zm8.33-58.33V9.08h8.34v8.34Zm0,58.33h8.34v8.33h-8.34Zm8.34-66.67V.75h25V9.08Zm0,75h25v8.34h-25Zm25-75h8.33v8.34h-8.33Zm0,75V75.75h8.33v8.33Zm8.33-8.33V17.42h8.33V75.75Z"/><path d="M239.76,75.75V17.42h8.34V75.75Zm8.34-58.33V9.08h8.33v8.34Zm0,58.33h8.33v8.33H248.1Zm8.33-66.67V.75h25V9.08Zm0,75h25v8.34h-25Zm25-75h8.33v8.34h-8.33Zm0,75V75.75h8.33v8.33Zm8.33-8.33V17.42h8.34V75.75Z"/><path d="M306.43,34.08V17.42h8.33V34.08Zm0,50V75.75h8.33v8.33Zm25-75v8.34H314.76V9.08Zm0,25v8.34H314.76V34.08ZM323.1,75.75h-8.34V67.42h8.34Zm8.33-16.67v8.34H323.1V59.08Zm8.33-25h-8.33V17.42h8.33Zm0,16.67v8.33h-8.33V50.75Zm0-8.33h8.34v8.33h-8.34Zm16.67-8.34v8.34H348.1V34.08Zm0,41.67H348.1V59.08h8.33Zm8.33-41.67h-8.33V25.75h8.33Zm8.34,16.67v8.33H356.43V50.75Zm0,25v8.33H356.43V75.75Zm0-58.33v8.33h-8.34V17.42Zm8.33-8.34v8.34H373.1V9.08Zm0,66.67H373.1V59.08h8.33Z"/></g></g></svg>